<svg width="20" height="20" viewBox="0 0 20 20" fill="none" xmlns="http://www.w3.org/2000/svg">
<path d="M10 15L6.19376 9.625C5.57075 8.88942 5.16954 7.99197 5.03686 7.03718C4.90418 6.08239 5.04549 5.10956 5.44433 4.23197C5.84317 3.35439 6.48313 2.60818 7.28967 2.08024C8.09622 1.55231 9.03616 1.26439 10 1.25C11.3361 1.2632 12.6125 1.80537 13.5497 2.75776C14.4868 3.71015 15.0083 4.99512 15 6.33125C15.0005 7.49683 14.6037 8.62778 13.875 9.5375L10 15ZM10 2.5C8.99492 2.51154 8.03549 2.92149 7.33239 3.63982C6.6293 4.35815 6.24001 5.32614 6.25001 6.33125C6.25474 7.24854 6.58473 8.13441 7.18126 8.83125L10 12.825L12.8938 8.75C13.4438 8.0634 13.7456 7.211 13.75 6.33125C13.76 5.32614 13.3707 4.35815 12.6676 3.63982C11.9645 2.92149 11.0051 2.51154 10 2.5Z" fill="#5A5857"/>
<path d="M10 6.875C10.6904 6.875 11.25 6.31536 11.25 5.625C11.25 4.93464 10.6904 4.375 10 4.375C9.30964 4.375 8.75 4.93464 8.75 5.625C8.75 6.31536 9.30964 6.875 10 6.875Z" fill="#5A5857"/>
<path d="M17.5 7.5H16.25V8.75H17.5V17.5H2.5V8.75H3.75V7.5H2.5C2.16848 7.5 1.85054 7.6317 1.61612 7.86612C1.3817 8.10054 1.25 8.41848 1.25 8.75V17.5C1.25 17.8315 1.3817 18.1495 1.61612 18.3839C1.85054 18.6183 2.16848 18.75 2.5 18.75H17.5C17.8315 18.75 18.1495 18.6183 18.3839 18.3839C18.6183 18.1495 18.75 17.8315 18.75 17.5V8.75C18.75 8.41848 18.6183 8.10054 18.3839 7.86612C18.1495 7.6317 17.8315 7.5 17.5 7.5Z" fill="#5A5857"/>
</svg>
