<svg width="30" height="30" viewBox="0 0 30 30" fill="none" xmlns="http://www.w3.org/2000/svg">
<path d="M14.5833 0C6.54792 0 0 6.54792 0 14.5833C0 22.6187 6.54792 29.1667 14.5833 29.1667C22.6187 29.1667 29.1667 22.6187 29.1667 14.5833C29.1667 6.54792 22.6187 0 14.5833 0ZM21.5542 11.2292L13.2854 19.4979C13.0812 19.7021 12.8042 19.8187 12.5125 19.8187C12.2208 19.8187 11.9437 19.7021 11.7396 19.4979L7.6125 15.3708C7.18958 14.9479 7.18958 14.2479 7.6125 13.825C8.03542 13.4021 8.73542 13.4021 9.15833 13.825L12.5125 17.1792L20.0083 9.68333C20.4312 9.26042 21.1313 9.26042 21.5542 9.68333C21.9771 10.1062 21.9771 10.7917 21.5542 11.2292Z" fill="#72D096"/>
</svg>
