<svg width="20" height="20" viewBox="0 0 20 20" fill="none" xmlns="http://www.w3.org/2000/svg">
<path d="M10 5.00016C12.1833 5.00016 14.0667 6.55016 14.4917 8.69183L14.7417 9.94183L16.0167 10.0335C16.6431 10.0756 17.2303 10.3535 17.6602 10.8112C18.09 11.2688 18.3305 11.8723 18.3333 12.5002C18.3333 13.8752 17.2083 15.0002 15.8333 15.0002H5C3.15833 15.0002 1.66667 13.5085 1.66667 11.6668C1.66667 9.9585 2.94167 8.5335 4.63333 8.3585L5.525 8.26683L5.94167 7.47516C6.32497 6.7292 6.90665 6.10345 7.62268 5.66678C8.3387 5.23011 9.16132 4.99944 10 5.00016ZM10 3.3335C7.59167 3.3335 5.5 4.70016 4.45833 6.70016C3.23353 6.83252 2.10084 7.41284 1.27791 8.3296C0.454976 9.24636 -0.000143085 10.4349 3.3744e-08 11.6668C3.3744e-08 14.4252 2.24167 16.6668 5 16.6668H15.8333C18.1333 16.6668 20 14.8002 20 12.5002C20 10.3002 18.2917 8.51683 16.125 8.36683C15.8451 6.94826 15.0813 5.67088 13.9642 4.75287C12.8471 3.83486 11.4459 3.33317 10 3.3335Z" fill="#5A5857"/>
</svg>
