<svg width="20" height="20" viewBox="0 0 20 20" fill="none" xmlns="http://www.w3.org/2000/svg">
<path d="M14.375 2.5H5.625C4.7962 2.5 4.00134 2.82924 3.41529 3.41529C2.82924 4.00134 2.5 4.7962 2.5 5.625V14.375C2.5 15.2038 2.82924 15.9987 3.41529 16.5847C4.00134 17.1708 4.7962 17.5 5.625 17.5H14.375C15.2038 17.5 15.9987 17.1708 16.5847 16.5847C17.1708 15.9987 17.5 15.2038 17.5 14.375V5.625C17.5 4.7962 17.1708 4.00134 16.5847 3.41529C15.9987 2.82924 15.2038 2.5 14.375 2.5ZM3.75 5.625C3.75 5.12772 3.94754 4.65081 4.29917 4.29917C4.65081 3.94754 5.12772 3.75 5.625 3.75H7.5V7.5H3.75V5.625ZM5.625 16.25C5.12772 16.25 4.65081 16.0525 4.29917 15.7008C3.94754 15.3492 3.75 14.8723 3.75 14.375V8.75H7.5V16.25H5.625ZM16.25 14.375C16.25 14.8723 16.0525 15.3492 15.7008 15.7008C15.3492 16.0525 14.8723 16.25 14.375 16.25H8.75V8.75H16.25V14.375ZM16.25 7.5H8.75V3.75H14.375C14.8723 3.75 15.3492 3.94754 15.7008 4.29917C16.0525 4.65081 16.25 5.12772 16.25 5.625V7.5Z" fill="#5A5857"/>
</svg>
