<svg width="20" height="20" viewBox="0 0 20 20" fill="none" xmlns="http://www.w3.org/2000/svg">
<path d="M13.9843 18.1909C15.4407 18.1909 16.4036 17.7974 17.2571 16.8431C17.3243 16.7763 17.3829 16.7009 17.45 16.6338C17.9521 16.0731 18.1864 15.5206 18.1864 14.9934C18.1864 14.3906 17.835 13.8299 17.09 13.3106L14.6543 11.6199C13.9007 11.1009 13.0218 11.0424 12.3186 11.737L11.6743 12.3817C11.4814 12.5742 11.3143 12.5827 11.1218 12.4652C10.6782 12.1806 9.76571 11.3856 9.14607 10.7663C8.49321 10.1217 7.85714 9.40202 7.53071 8.87452C7.41357 8.68166 7.43035 8.52273 7.62285 8.33023L8.25893 7.68559C8.96214 6.98273 8.90357 6.09523 8.38464 5.35059L6.68535 2.91488C6.17464 2.16952 5.61393 1.8263 5.01107 1.81809C4.48393 1.80952 3.93143 2.05238 3.37071 2.55452C3.29535 2.62166 3.22821 2.68023 3.15285 2.7388C2.20714 3.59238 1.81357 4.55523 1.81357 6.00309C1.81357 8.39738 3.28678 11.3102 5.99071 14.0138C8.6775 16.7009 11.5989 18.1909 13.9843 18.1909ZM13.9929 16.9017C11.8582 16.9434 9.12143 15.3031 6.95321 13.1434C4.76857 10.967 3.0525 8.13773 3.09428 6.00345C3.11107 5.08238 3.42928 4.28738 4.09071 3.71809C4.14071 3.66809 4.19071 3.62595 4.24928 3.58416C4.49214 3.3663 4.76857 3.24952 5.00285 3.24952C5.25393 3.24952 5.47143 3.3413 5.63071 3.59238L7.25464 6.02809C7.43035 6.28773 7.44714 6.58095 7.1875 6.84023L6.45107 7.57702C5.865 8.15452 5.91535 8.85773 6.33393 9.41845C6.81071 10.0631 7.63964 11.0006 8.27571 11.6367C8.92035 12.2813 9.93285 13.1852 10.5775 13.6706C11.1382 14.0892 11.85 14.1313 12.4275 13.5534L13.1639 12.817C13.4236 12.5574 13.7082 12.5742 13.9675 12.7417L16.4032 14.3656C16.6546 14.5327 16.755 14.742 16.755 14.9934C16.755 15.2363 16.6379 15.5042 16.4121 15.7549C16.3728 15.8099 16.3308 15.8631 16.2864 15.9142C15.7089 16.567 14.9136 16.8849 13.9929 16.9017Z" fill="#5A5857"/>
</svg>
