<svg width="20" height="20" viewBox="0 0 20 20" fill="none" xmlns="http://www.w3.org/2000/svg">
<path d="M9.85832 11.6665V11.149C9.85792 10.8079 9.94736 10.4728 10.1176 10.1773C10.2879 9.88179 10.533 9.63634 10.8283 9.46567C11.7667 8.91567 12.09 7.7515 11.54 6.81317C10.99 5.87484 9.82582 5.5515 8.88749 6.1015C8.30416 6.45817 7.91666 7.07234 7.91666 7.784M9.99999 14.1665H9.99332M18.3333 9.99984C18.3333 5.39734 14.6025 1.6665 9.99999 1.6665C5.39749 1.6665 1.66666 5.39734 1.66666 9.99984C1.66666 14.6023 5.39749 18.3332 9.99999 18.3332C14.6025 18.3332 18.3333 14.6023 18.3333 9.99984Z" stroke="#5A5857" stroke-width="1.2" stroke-miterlimit="10" stroke-linecap="round" stroke-linejoin="round"/>
</svg>
