<svg width="20" height="20" viewBox="0 0 20 20" fill="none" xmlns="http://www.w3.org/2000/svg">
<path d="M5.83332 7.50195C4.02082 7.51279 3.03916 7.59945 2.39916 8.29362C1.66666 9.08695 1.66666 10.3636 1.66666 12.917C1.66666 15.4703 1.66666 16.747 2.39916 17.5403C3.13082 18.3336 4.30999 18.3336 6.66666 18.3336H13.3333C15.69 18.3336 16.8692 18.3336 17.6008 17.5403C18.3325 16.747 18.3333 15.4703 18.3333 12.917C18.3333 10.3636 18.3333 9.08695 17.6008 8.29362C16.9608 7.59945 15.9792 7.51279 14.1667 7.50195M4.99999 10.0003L8.74999 12.1878M8.74999 12.1878L11.5 13.792M8.74999 12.1878L4.99999 14.667M15 15.8336L11.5 13.792M11.5 13.792L15 11.4586" stroke="#5A5857" stroke-width="1.2" stroke-linecap="round" stroke-linejoin="round"/>
<path d="M9.99999 5.83366C10.5525 5.83366 11.0824 5.61417 11.4731 5.22346C11.8638 4.83276 12.0833 4.30286 12.0833 3.75033C12.0833 3.19779 11.8638 2.66789 11.4731 2.27719C11.0824 1.88649 10.5525 1.66699 9.99999 1.66699C9.44746 1.66699 8.91755 1.88649 8.52685 2.27719C8.13615 2.66789 7.91666 3.19779 7.91666 3.75033C7.91666 4.30286 8.13615 4.83276 8.52685 5.22346C8.91755 5.61417 9.44746 5.83366 9.99999 5.83366ZM9.99999 5.83366V9.16699" stroke="#5A5857" stroke-width="1.2" stroke-linecap="round"/>
</svg>
