<svg width="20" height="20" viewBox="0 0 20 20" fill="none" xmlns="http://www.w3.org/2000/svg">
<path d="M3.33334 5.83333C3.33334 4.26167 3.33334 3.47667 3.82168 2.98833C4.31001 2.5 5.09501 2.5 6.66668 2.5H13.3333C14.905 2.5 15.69 2.5 16.1783 2.98833C16.6667 3.47667 16.6667 4.26167 16.6667 5.83333V12.5C16.6667 14.8567 16.6667 16.0358 15.9342 16.7675C15.2025 17.5 14.0233 17.5 11.6667 17.5H8.33334C5.97668 17.5 4.79751 17.5 4.06584 16.7675C3.33334 16.0358 3.33334 14.8567 3.33334 12.5V5.83333Z" stroke="#5A5857" stroke-width="1.2"/>
<path d="M12.5 15.0003V17.5003M7.5 15.0003V17.5003M7.5 6.66699H12.5M7.5 10.0003H12.5" stroke="#5A5857" stroke-width="1.2" stroke-linecap="round"/>
</svg>
