<svg width="33" height="33" viewBox="0 0 33 33" fill="none" xmlns="http://www.w3.org/2000/svg">
<path d="M23.375 10.7879H9.62502V6.34668H23.375V10.7879ZM24.222 16.6592C24.6116 16.6592 24.9379 16.5272 25.201 16.2632C25.4641 15.9992 25.5961 15.6728 25.597 15.2842C25.5979 14.8955 25.4659 14.5687 25.201 14.3038C24.9361 14.0389 24.6098 13.9069 24.222 13.9078C23.8343 13.9087 23.5075 14.0407 23.2416 14.3038C22.9758 14.5669 22.8443 14.8937 22.847 15.2842C22.8498 15.6747 22.9813 16.001 23.2416 16.2632C23.502 16.5253 23.8288 16.6573 24.222 16.6592ZM22 26.1247V19.8849H11V26.1247H22ZM23.375 27.4997H9.62502V21.9997H4.9184V14.5967C4.9184 13.8175 5.18285 13.1644 5.71177 12.6373C6.24069 12.1102 6.8929 11.8462 7.6684 11.8453H25.3316C26.1108 11.8453 26.7639 12.1093 27.291 12.6373C27.8181 13.1653 28.0816 13.818 28.0816 14.5953V21.9997H23.375V27.4997Z" fill="#1C1C1C"/>
</svg>
