<svg width="20" height="20" viewBox="0 0 20 20" fill="none" xmlns="http://www.w3.org/2000/svg">
<g clip-path="url(#clip0_842_1279)">
<path d="M17.6861 0H1.75896C0.787523 0 0 0.81 0 1.80916V18.1908C0 19.19 0.787523 20 1.75896 20H17.686C18.6575 20 19.445 19.19 19.445 18.1908V1.80916C19.445 0.81 18.6575 0 17.6861 0ZM6.01711 17.2693C6.01711 17.5601 5.78794 17.7958 5.50523 17.7958H3.32627C3.04355 17.7958 2.81439 17.5601 2.81439 17.2693V7.8745C2.81439 7.58372 3.04355 7.34801 3.32627 7.34801H5.50523C5.78794 7.34801 6.01711 7.58372 6.01711 7.8745V17.2693ZM4.41575 6.46241C3.27251 6.46241 2.34572 5.50916 2.34572 4.3333C2.34572 3.15743 3.27251 2.20419 4.41575 2.20419C5.55898 2.20419 6.48578 3.15743 6.48578 4.3333C6.48578 5.50916 5.55903 6.46241 4.41575 6.46241ZM17.4043 17.3117C17.4043 17.5791 17.1936 17.7958 16.9337 17.7958H14.5955C14.3356 17.7958 14.1248 17.5791 14.1248 17.3117V12.905C14.1248 12.2476 14.3123 10.0243 12.4545 10.0243C11.0135 10.0243 10.7212 11.5461 10.6625 12.2291V17.3117C10.6625 17.5791 10.4518 17.7958 10.1919 17.7958H7.93046C7.67055 17.7958 7.45981 17.5791 7.45981 17.3117V7.83209C7.45981 7.56476 7.67055 7.34801 7.93046 7.34801H10.1919C10.4518 7.34801 10.6625 7.56476 10.6625 7.83209V8.65173C11.1969 7.82696 11.991 7.19037 13.6817 7.19037C17.4257 7.19037 17.4043 10.7881 17.4043 12.7648V17.3117Z" fill="#0077B7"/>
</g>
<defs>
<clipPath id="clip0_842_1279">
<rect width="19.445" height="20" fill="white"/>
</clipPath>
</defs>
</svg>
