<svg width="20" height="20" viewBox="0 0 20 20" fill="none" xmlns="http://www.w3.org/2000/svg">
<path d="M8.85588 15.8729C8.79882 15.4486 8.66471 15.0743 8.45353 14.7498C8.24294 14.4254 8.02059 14.1114 7.78647 13.8079C7.55176 13.5039 7.34324 13.1911 7.16088 12.8695C6.97853 12.5478 6.88735 12.1854 6.88735 11.7821C6.88735 11.0906 7.14324 10.4979 7.655 10.0038C8.16794 9.50978 8.78294 9.26275 9.5 9.26275C10.2171 9.26275 10.8318 9.50978 11.3441 10.0038C11.8565 10.4979 12.1129 11.0906 12.1135 11.7821C12.1135 12.1859 12.0221 12.5459 11.8391 12.8618C11.6568 13.1772 11.4482 13.4897 11.2135 13.7994C10.9794 14.1086 10.7571 14.4254 10.5465 14.7498C10.3353 15.0743 10.2015 15.4486 10.145 15.8729H8.85588ZM9.06676 17.8298C8.94853 17.7158 8.88941 17.5763 8.88941 17.4112V17.0513H10.1106V17.4112C10.1106 17.5757 10.0518 17.715 9.93412 17.829C9.81529 17.943 9.67059 18 9.5 18C9.32941 18 9.185 17.9433 9.06676 17.8298ZM15.1329 15.4313C15.0576 15.3582 15.0144 15.2742 15.0032 15.1795C14.9921 15.0848 15.0174 14.992 15.0791 14.9013C15.4109 14.4117 15.6668 13.872 15.8468 13.2821C16.0268 12.6922 16.1171 12.0833 16.1176 11.4554C16.1176 10.621 15.9629 9.83537 15.6535 9.09854C15.3441 8.36172 14.915 7.70203 14.3662 7.11949C14.2838 7.0225 14.2388 6.92125 14.2312 6.81574C14.2235 6.71024 14.2688 6.61098 14.3671 6.51795C14.4529 6.43457 14.5559 6.39004 14.6759 6.38437C14.7959 6.3787 14.8971 6.42294 14.9794 6.5171C15.6071 7.16487 16.1009 7.90822 16.4609 8.74715C16.8203 9.58664 17 10.4894 17 11.4554C17 12.1882 16.8982 12.8868 16.6947 13.551C16.4912 14.2146 16.1965 14.8278 15.8106 15.3905C15.7282 15.5005 15.6206 15.5601 15.4876 15.5692C15.3547 15.5782 15.2365 15.5323 15.1329 15.4313ZM3.18941 15.3905C2.80353 14.8278 2.50882 14.2146 2.30529 13.551C2.10176 12.8873 2 12.1888 2 11.4554C2 9.43718 2.72676 7.72728 4.18029 6.32566C5.63382 4.92405 7.40706 4.22324 9.5 4.22324H10.7459L9.17088 2.72067C9.08853 2.64125 9.04735 2.54114 9.04735 2.42032C9.04735 2.2995 9.08853 2.1991 9.17088 2.11912C9.25324 2.03914 9.35735 1.99944 9.48324 2.00001C9.60912 2.00057 9.71324 2.04028 9.79559 2.11912L11.9026 4.16794C11.9791 4.24168 12.0332 4.3174 12.065 4.39511C12.0968 4.47282 12.1124 4.55734 12.1118 4.64866C12.1112 4.73999 12.0956 4.8245 12.065 4.90221C12.0344 4.97992 11.9803 5.05593 11.9026 5.13024L9.79559 7.16204C9.69794 7.25563 9.59382 7.30157 9.48324 7.29987C9.37206 7.29874 9.26794 7.25109 9.17088 7.15693C9.07382 7.06334 9.02529 6.96209 9.02529 6.85318C9.02529 6.74427 9.07382 6.64331 9.17088 6.55028L10.7018 5.07408H9.5C7.67 5.07408 6.10941 5.69633 4.81824 6.94082C3.52706 8.18531 2.88176 9.69016 2.88235 11.4554C2.88235 12.0838 2.97265 12.6928 3.15324 13.2821C3.33324 13.872 3.58912 14.4117 3.92088 14.9013C3.98206 14.992 4.00735 15.0848 3.99676 15.1795C3.98618 15.2742 3.94294 15.3582 3.86706 15.4313C3.76294 15.5317 3.64471 15.5777 3.51235 15.5692C3.37941 15.5601 3.27176 15.5005 3.18941 15.3905Z" fill="#5A5857"/>
</svg>
