<svg width="20" height="20" viewBox="0 0 20 20" fill="none" xmlns="http://www.w3.org/2000/svg">
<path d="M3 16.235C3.9 15.3517 4.946 14.6557 6.138 14.147C7.33 13.6383 8.61733 13.3843 10 13.385C11.3827 13.3857 12.6703 13.6397 13.863 14.147C15.0557 14.6543 16.1013 15.3503 17 16.235V3.615C17 3.46167 16.936 3.32067 16.808 3.192C16.68 3.06333 16.5387 2.99933 16.384 3H3.616C3.462 3 3.32067 3.064 3.192 3.192C3.06333 3.32 2.99933 3.46133 3 3.616V16.235ZM12.129 10.205C12.7097 9.625 13 8.91567 13 8.077C13 7.23833 12.7097 6.52867 12.129 5.948C11.5483 5.36733 10.8387 5.077 10 5.077C9.16133 5.077 8.45167 5.36733 7.871 5.948C7.29033 6.52867 7 7.23833 7 8.077C7 8.91567 7.29033 9.62533 7.871 10.206C8.45167 10.7867 9.16133 11.077 10 11.077C10.8387 11.077 11.5483 10.7867 12.129 10.206M3.616 18C3.15533 18 2.771 17.846 2.463 17.538C2.155 17.23 2.00067 16.8453 2 16.384V3.616C2 3.15533 2.15433 2.771 2.463 2.463C2.77167 2.155 3.156 2.00067 3.616 2H16.385C16.845 2 17.2293 2.15433 17.538 2.463C17.8467 2.77167 18.0007 3.156 18 3.616V16.385C18 16.845 17.846 17.2293 17.538 17.538C17.23 17.8467 16.8453 18.0007 16.384 18H3.616ZM3.629 17H16.37C15.406 16.0933 14.3847 15.4307 13.306 15.012C12.2273 14.5933 11.1253 14.3843 10 14.385C8.9 14.385 7.80233 14.5943 6.707 15.013C5.61167 15.4317 4.58567 16.094 3.629 17ZM8.591 9.486C8.197 9.09133 8 8.62167 8 8.077C8 7.53233 8.197 7.06267 8.591 6.668C8.98567 6.274 9.45533 6.077 10 6.077C10.5447 6.077 11.0143 6.274 11.409 6.668C11.803 7.06267 12 7.53233 12 8.077C12 8.62167 11.803 9.09133 11.409 9.486C11.015 9.88067 10.5453 10.0777 10 10.077C9.45467 10.0763 8.985 9.87933 8.591 9.486Z" fill="#5A5857"/>
</svg>
