<svg width="20" height="20" viewBox="0 0 20 20" fill="none" xmlns="http://www.w3.org/2000/svg">
<path d="M15 11.042L16.6667 12.7087V18.3337H1.66666V3.33366H7.91666C7.80555 3.58366 7.72221 3.85116 7.66666 4.13616C7.6111 4.42116 7.56944 4.70921 7.54166 5.00032H3.33332V16.667H15V11.042ZM16.0833 7.41699L18.75 10.0837L17.5833 11.2503L14.9167 8.58366C14.625 8.75032 14.3125 8.88921 13.9792 9.00032C13.6458 9.11144 13.2917 9.16699 12.9167 9.16699C11.875 9.16699 10.9897 8.80227 10.2608 8.07282C9.53193 7.34338 9.16721 6.4581 9.16666 5.41699C9.1661 4.37588 9.53082 3.4906 10.2608 2.76116C10.9908 2.03171 11.8761 1.66699 12.9167 1.66699C13.9572 1.66699 14.8428 2.03171 15.5733 2.76116C16.3039 3.4906 16.6683 4.37588 16.6667 5.41699C16.6667 5.79199 16.6111 6.14616 16.5 6.47949C16.3889 6.81282 16.25 7.12532 16.0833 7.41699ZM14.3958 6.89616C14.7986 6.49338 15 6.00032 15 5.41699C15 4.83366 14.7986 4.3406 14.3958 3.93782C13.993 3.53505 13.5 3.33366 12.9167 3.33366C12.3333 3.33366 11.8403 3.53505 11.4375 3.93782C11.0347 4.3406 10.8333 4.83366 10.8333 5.41699C10.8333 6.00032 11.0347 6.49338 11.4375 6.89616C11.8403 7.29894 12.3333 7.50032 12.9167 7.50032C13.5 7.50032 13.993 7.29894 14.3958 6.89616ZM3.33332 11.042V16.667V5.00032V10.8337V10.5837V11.042Z" fill="#5A5857"/>
</svg>
