<svg width="16" height="16" viewBox="0 0 16 16" fill="none" xmlns="http://www.w3.org/2000/svg">
<path d="M8.00033 10.3833C7.91144 10.3833 7.8281 10.3696 7.75033 10.342C7.67255 10.3145 7.60033 10.2671 7.53366 10.2L5.13366 7.80001C5.00033 7.66667 4.93633 7.51112 4.94166 7.33334C4.94699 7.15556 5.01099 7.00001 5.13366 6.86667C5.26699 6.73334 5.42544 6.66401 5.60899 6.65867C5.79255 6.65334 5.95077 6.71712 6.08366 6.85001L7.33366 8.10001V3.33334C7.33366 3.14445 7.39766 2.98623 7.52566 2.85867C7.65366 2.73112 7.81188 2.66712 8.00033 2.66667C8.18877 2.66623 8.34721 2.73023 8.47566 2.85867C8.6041 2.98712 8.66788 3.14534 8.66699 3.33334V8.10001L9.91699 6.85001C10.0503 6.71667 10.2088 6.65267 10.3923 6.65801C10.5759 6.66334 10.7341 6.7329 10.867 6.86667C10.9892 7.00001 11.0532 7.15556 11.059 7.33334C11.0648 7.51112 11.0008 7.66667 10.867 7.80001L8.46699 10.2C8.40033 10.2667 8.3281 10.314 8.25033 10.342C8.17255 10.37 8.08921 10.3838 8.00033 10.3833ZM4.00033 13.3333C3.63366 13.3333 3.31988 13.2029 3.05899 12.942C2.7981 12.6811 2.66744 12.3671 2.66699 12V10.6667C2.66699 10.4778 2.73099 10.3196 2.85899 10.192C2.98699 10.0645 3.14521 10.0005 3.33366 10C3.5221 9.99956 3.68055 10.0636 3.80899 10.192C3.93744 10.3205 4.00121 10.4787 4.00033 10.6667V12H12.0003V10.6667C12.0003 10.4778 12.0643 10.3196 12.1923 10.192C12.3203 10.0645 12.4785 10.0005 12.667 10C12.8554 9.99956 13.0139 10.0636 13.1423 10.192C13.2708 10.3205 13.3345 10.4787 13.3337 10.6667V12C13.3337 12.3667 13.2032 12.6807 12.9423 12.942C12.6814 13.2033 12.3674 13.3338 12.0003 13.3333H4.00033Z" fill="#0088FF"/>
</svg>
