<svg width="20" height="20" viewBox="0 0 20 20" fill="none" xmlns="http://www.w3.org/2000/svg">
<path d="M7.29168 5.83301C7.12592 5.83301 6.96695 5.89886 6.84974 6.01607C6.73253 6.13328 6.66668 6.29225 6.66668 6.45801C6.66668 6.62377 6.73253 6.78274 6.84974 6.89995C6.96695 7.01716 7.12592 7.08301 7.29168 7.08301H13.5417C13.7074 7.08301 13.8664 7.01716 13.9836 6.89995C14.1008 6.78274 14.1667 6.62377 14.1667 6.45801C14.1667 6.29225 14.1008 6.13328 13.9836 6.01607C13.8664 5.89886 13.7074 5.83301 13.5417 5.83301H7.29168ZM5.83334 9.79134C5.83334 9.62558 5.89919 9.46661 6.0164 9.3494C6.13361 9.23219 6.29258 9.16634 6.45834 9.16634H11.875C12.0408 9.16634 12.1997 9.23219 12.317 9.3494C12.4342 9.46661 12.5 9.62558 12.5 9.79134C12.5 9.9571 12.4342 10.1161 12.317 10.2333C12.1997 10.3505 12.0408 10.4163 11.875 10.4163H6.45834C6.29258 10.4163 6.13361 10.3505 6.0164 10.2333C5.89919 10.1161 5.83334 9.9571 5.83334 9.79134ZM8.12501 12.4997C7.95925 12.4997 7.80028 12.5655 7.68307 12.6827C7.56586 12.7999 7.50001 12.9589 7.50001 13.1247C7.50001 13.2904 7.56586 13.4494 7.68307 13.5666C7.80028 13.6838 7.95925 13.7497 8.12501 13.7497H13.5417C13.7074 13.7497 13.8664 13.6838 13.9836 13.5666C14.1008 13.4494 14.1667 13.2904 14.1667 13.1247C14.1667 12.9589 14.1008 12.7999 13.9836 12.6827C13.8664 12.5655 13.7074 12.4997 13.5417 12.4997H8.12501Z" fill="#5A5857"/>
<path d="M1.66666 3.12533C1.66666 2.32033 2.31999 1.66699 3.12499 1.66699H16.875C17.68 1.66699 18.3333 2.32033 18.3333 3.12533V16.8753C18.3333 17.2621 18.1797 17.633 17.9062 17.9065C17.6327 18.18 17.2618 18.3337 16.875 18.3337H3.12499C2.73822 18.3337 2.36728 18.18 2.09379 17.9065C1.8203 17.633 1.66666 17.2621 1.66666 16.8753V3.12533ZM3.12499 2.91699C3.06974 2.91699 3.01675 2.93894 2.97768 2.97801C2.93861 3.01708 2.91666 3.07007 2.91666 3.12533V16.8753C2.91666 16.9903 3.00999 17.0837 3.12499 17.0837H16.875C16.9302 17.0837 16.9832 17.0617 17.0223 17.0226C17.0614 16.9836 17.0833 16.9306 17.0833 16.8753V3.12533C17.0833 3.07007 17.0614 3.01708 17.0223 2.97801C16.9832 2.93894 16.9302 2.91699 16.875 2.91699H3.12499Z" fill="#5A5857"/>
</svg>
