<svg width="20" height="20" viewBox="0 0 20 20" fill="none" xmlns="http://www.w3.org/2000/svg">
<path d="M7.70833 3.95801V13.7913M12.2917 6.20801V16.0413M7.08 3.69884L3.53917 5.75801C3.4132 5.83132 3.30866 5.93639 3.23598 6.06273C3.16331 6.18907 3.12504 6.33226 3.125 6.47801V15.2163C3.1249 15.3629 3.16345 15.5069 3.23678 15.6338C3.31011 15.7608 3.41562 15.8661 3.54266 15.9392C3.6697 16.0123 3.81378 16.0506 3.96035 16.0503C4.10693 16.0499 4.25082 16.0109 4.3775 15.9372L7.08 14.3647C7.27082 14.2537 7.48761 14.1953 7.70833 14.1953C7.92906 14.1953 8.14585 14.2537 8.33667 14.3647L11.6633 16.2997C11.8541 16.4106 12.0709 16.4691 12.2917 16.4691C12.5124 16.4691 12.7292 16.4106 12.92 16.2997L16.4608 14.2397C16.5868 14.1664 16.6913 14.0613 16.764 13.935C16.8367 13.8086 16.875 13.6654 16.875 13.5197V4.78217C16.8751 4.6356 16.8365 4.49159 16.7632 4.36467C16.6899 4.23776 16.5844 4.13243 16.4573 4.05932C16.3303 3.9862 16.1862 3.94789 16.0396 3.94825C15.8931 3.9486 15.7492 3.98761 15.6225 4.06134L12.92 5.63384C12.7292 5.74479 12.5124 5.80324 12.2917 5.80324C12.0709 5.80324 11.8541 5.74479 11.6633 5.63384L8.33667 3.69967C8.14585 3.58872 7.92906 3.53027 7.70833 3.53027C7.48761 3.53027 7.27082 3.58789 7.08 3.69884Z" stroke="#5A5857" stroke-width="1.2" stroke-linejoin="round"/>
</svg>
