<svg width="20" height="20" viewBox="0 0 20 20" fill="none" xmlns="http://www.w3.org/2000/svg">
<path d="M15.625 3.125H4.375C3.71196 3.125 3.07607 3.38839 2.60723 3.85723C2.13839 4.32607 1.875 4.96196 1.875 5.625V11.875C1.875 12.538 2.13839 13.1739 2.60723 13.6428C3.07607 14.1116 3.71196 14.375 4.375 14.375H11.25L15 16.875V14.375H15.625C16.288 14.375 16.9239 14.1116 17.3928 13.6428C17.8616 13.1739 18.125 12.538 18.125 11.875V5.625C18.125 4.96196 17.8616 4.32607 17.3928 3.85723C16.9239 3.38839 16.288 3.125 15.625 3.125Z" stroke="#5A5857" stroke-width="1.2" stroke-linecap="round" stroke-linejoin="round"/>
<path d="M6.25 9.375C6.25 9.54076 6.18415 9.69973 6.06694 9.81694C5.94973 9.93415 5.79076 10 5.625 10C5.45924 10 5.30027 9.93415 5.18306 9.81694C5.06585 9.69973 5 9.54076 5 9.375C5 9.20924 5.06585 9.05027 5.18306 8.93306C5.30027 8.81585 5.45924 8.75 5.625 8.75C5.79076 8.75 5.94973 8.81585 6.06694 8.93306C6.18415 9.05027 6.25 9.20924 6.25 9.375ZM10 9.375C10 9.54076 9.93415 9.69973 9.81694 9.81694C9.69973 9.93415 9.54076 10 9.375 10C9.20924 10 9.05027 9.93415 8.93306 9.81694C8.81585 9.69973 8.75 9.54076 8.75 9.375C8.75 9.20924 8.81585 9.05027 8.93306 8.93306C9.05027 8.81585 9.20924 8.75 9.375 8.75C9.54076 8.75 9.69973 8.81585 9.81694 8.93306C9.93415 9.05027 10 9.20924 10 9.375ZM13.75 9.375C13.75 9.54076 13.6842 9.69973 13.5669 9.81694C13.4497 9.93415 13.2908 10 13.125 10C12.9592 10 12.8003 9.93415 12.6831 9.81694C12.5658 9.69973 12.5 9.54076 12.5 9.375C12.5 9.20924 12.5658 9.05027 12.6831 8.93306C12.8003 8.81585 12.9592 8.75 13.125 8.75C13.2908 8.75 13.4497 8.81585 13.5669 8.93306C13.6842 9.05027 13.75 9.20924 13.75 9.375Z" stroke="#5A5857" stroke-width="1.2" stroke-linecap="round" stroke-linejoin="round"/>
</svg>
