<svg width="20" height="20" viewBox="0 0 20 20" fill="none" xmlns="http://www.w3.org/2000/svg">
<path d="M16.4275 7.60692L16.2225 8.07858C16.1905 8.15539 16.1364 8.221 16.0672 8.26714C15.9979 8.31329 15.9165 8.33792 15.8333 8.33792C15.7501 8.33792 15.6687 8.31329 15.5995 8.26714C15.5302 8.221 15.4762 8.15539 15.4442 8.07858L15.2392 7.60692C14.8787 6.77252 14.2186 6.10352 13.3892 5.73192L12.7567 5.44942C12.6799 5.41412 12.6149 5.35756 12.5694 5.28644C12.5238 5.21532 12.4996 5.13263 12.4996 5.04817C12.4996 4.9637 12.5238 4.88101 12.5694 4.80989C12.6149 4.73877 12.6799 4.68221 12.7567 4.64692L13.3542 4.38108C14.2045 3.9989 14.8759 3.30515 15.23 2.44275L15.4408 1.93358C15.4718 1.85471 15.5258 1.787 15.5958 1.73927C15.6658 1.69154 15.7486 1.66602 15.8333 1.66602C15.9181 1.66602 16.0008 1.69154 16.0708 1.73927C16.1409 1.787 16.1949 1.85471 16.2258 1.93358L16.4367 2.44192C16.7904 3.30448 17.4615 3.99853 18.3117 4.38108L18.91 4.64775C18.9865 4.68315 19.0513 4.7397 19.0967 4.81073C19.1421 4.88175 19.1662 4.96429 19.1662 5.04858C19.1662 5.13288 19.1421 5.21541 19.0967 5.28644C19.0513 5.35746 18.9865 5.41402 18.91 5.44942L18.2767 5.73108C17.4473 6.10305 16.7876 6.77235 16.4275 7.60692ZM4.99999 4.16692C4.55796 4.16692 4.13404 4.34251 3.82148 4.65507C3.50892 4.96763 3.33332 5.39156 3.33332 5.83358V14.1669C3.33332 14.6089 3.50892 15.0329 3.82148 15.3454C4.13404 15.658 4.55796 15.8336 4.99999 15.8336H15C15.442 15.8336 15.8659 15.658 16.1785 15.3454C16.4911 15.0329 16.6667 14.6089 16.6667 14.1669V10.0002H18.3333V14.1669C18.3333 15.051 17.9821 15.8988 17.357 16.5239C16.7319 17.1491 15.884 17.5002 15 17.5002H4.99999C4.11594 17.5002 3.26809 17.1491 2.64297 16.5239C2.01785 15.8988 1.66666 15.051 1.66666 14.1669V5.83358C1.66666 4.94953 2.01785 4.10168 2.64297 3.47656C3.26809 2.85144 4.11594 2.50025 4.99999 2.50025H10.8333V4.16692H4.99999Z" fill="#5A5857"/>
</svg>
