<svg width="20" height="20" viewBox="0 0 20 20" fill="none" xmlns="http://www.w3.org/2000/svg">
<path fill-rule="evenodd" clip-rule="evenodd" d="M1.04166 1.66699C1.04166 1.50123 1.1075 1.34226 1.22471 1.22505C1.34192 1.10784 1.5009 1.04199 1.66666 1.04199H18.3333C18.4991 1.04199 18.6581 1.10784 18.7753 1.22505C18.8925 1.34226 18.9583 1.50123 18.9583 1.66699C18.9583 1.83275 18.8925 1.99172 18.7753 2.10893C18.6581 2.22614 18.4991 2.29199 18.3333 2.29199H17.2917V10.3553C17.2917 11.3445 17.2925 12.0328 17.0125 12.6495C16.7317 13.2662 16.2142 13.7195 15.4692 14.3703L15.3708 14.4562L13.6725 15.9412C12.9142 16.6037 12.3017 17.1395 11.7592 17.5045C11.1942 17.8845 10.6417 18.1253 9.99999 18.1253C9.35832 18.1253 8.80582 17.8845 8.24082 17.5045C7.69832 17.1395 7.08499 16.6037 6.32749 15.9412L4.62916 14.4562L4.53082 14.3703C3.78582 13.7195 3.26749 13.267 2.98749 12.6495C2.70749 12.032 2.70749 11.3445 2.70832 10.3553V2.29199H1.66666C1.5009 2.29199 1.34192 2.22614 1.22471 2.10893C1.1075 1.99172 1.04166 1.83275 1.04166 1.66699ZM3.95832 2.29199V10.2253C3.95832 11.3978 3.97166 11.792 4.12582 12.1328C4.27999 12.4728 4.56916 12.7428 5.45249 13.5153L7.11916 14.972C7.91582 15.6687 8.46916 16.152 8.93916 16.467C9.39332 16.7728 9.70166 16.8753 9.99999 16.8753C10.2983 16.8753 10.6067 16.7737 11.0617 16.467C11.5308 16.152 12.0842 15.6687 12.8808 14.972L14.5475 13.5153C15.4308 12.7428 15.72 12.4737 15.8742 12.1328C16.0283 11.7928 16.0417 11.3978 16.0417 10.2253V2.29199H3.95832ZM6.45832 6.66699C6.45832 6.50123 6.52417 6.34226 6.64138 6.22505C6.75859 6.10784 6.91756 6.04199 7.08332 6.04199H12.9167C13.0824 6.04199 13.2414 6.10784 13.3586 6.22505C13.4758 6.34226 13.5417 6.50123 13.5417 6.66699C13.5417 6.83275 13.4758 6.99172 13.3586 7.10893C13.2414 7.22614 13.0824 7.29199 12.9167 7.29199H7.08332C6.91756 7.29199 6.75859 7.22614 6.64138 7.10893C6.52417 6.99172 6.45832 6.83275 6.45832 6.66699ZM6.45832 10.8337C6.45832 10.6679 6.52417 10.5089 6.64138 10.3917C6.75859 10.2745 6.91756 10.2087 7.08332 10.2087H12.9167C13.0824 10.2087 13.2414 10.2745 13.3586 10.3917C13.4758 10.5089 13.5417 10.6679 13.5417 10.8337C13.5417 10.9994 13.4758 11.1584 13.3586 11.2756C13.2414 11.3928 13.0824 11.4587 12.9167 11.4587H7.08332C6.91756 11.4587 6.75859 11.3928 6.64138 11.2756C6.52417 11.1584 6.45832 10.9994 6.45832 10.8337Z" fill="#5A5857"/>
</svg>
