<svg width="20" height="20" viewBox="0 0 20 20" fill="none" xmlns="http://www.w3.org/2000/svg">
<path d="M17.8572 3.57129H2.14287C1.76399 3.57129 1.40062 3.7218 1.13271 3.98971C0.864804 4.25762 0.714294 4.62098 0.714294 4.99986V14.9999C0.714294 15.3787 0.864804 15.7421 1.13271 16.01C1.40062 16.2779 1.76399 16.4284 2.14287 16.4284H17.8572C18.236 16.4284 18.5994 16.2779 18.8673 16.01C19.1352 15.7421 19.2857 15.3787 19.2857 14.9999V4.99986C19.2857 4.62098 19.1352 4.25762 18.8673 3.98971C18.5994 3.7218 18.236 3.57129 17.8572 3.57129Z" stroke="#5A5857" stroke-width="1.2" stroke-linecap="round" stroke-linejoin="round"/>
<path d="M10 12.8569C10.7578 12.8569 11.4845 12.5558 12.0203 12.02C12.5561 11.4842 12.8571 10.7575 12.8571 9.99972C12.8571 9.24196 12.5561 8.51523 12.0203 7.97942C11.4845 7.4436 10.7578 7.14258 10 7.14258C9.24224 7.14258 8.51552 7.4436 7.9797 7.97942C7.44388 8.51523 7.14286 9.24196 7.14286 9.99972C7.14286 10.7575 7.44388 11.4842 7.9797 12.02C8.51552 12.5558 9.24224 12.8569 10 12.8569ZM3.96429 10.3569C3.86957 10.3569 3.77873 10.3192 3.71175 10.2523C3.64477 10.1853 3.60715 10.0944 3.60715 9.99972C3.60715 9.905 3.64477 9.81416 3.71175 9.74718C3.77873 9.68021 3.86957 9.64258 3.96429 9.64258M3.96429 10.3569C4.05901 10.3569 4.14985 10.3192 4.21683 10.2523C4.28381 10.1853 4.32143 10.0944 4.32143 9.99972C4.32143 9.905 4.28381 9.81416 4.21683 9.74718C4.14985 9.68021 4.05901 9.64258 3.96429 9.64258M16.0357 10.3569C15.941 10.3569 15.8502 10.3192 15.7832 10.2523C15.7162 10.1853 15.6786 10.0944 15.6786 9.99972C15.6786 9.905 15.7162 9.81416 15.7832 9.74718C15.8502 9.68021 15.941 9.64258 16.0357 9.64258M16.0357 10.3569C16.1304 10.3569 16.2213 10.3192 16.2883 10.2523C16.3552 10.1853 16.3929 10.0944 16.3929 9.99972C16.3929 9.905 16.3552 9.81416 16.2883 9.74718C16.2213 9.68021 16.1304 9.64258 16.0357 9.64258" stroke="#5A5857" stroke-width="1.2" stroke-linecap="round" stroke-linejoin="round"/>
</svg>
