<svg width="35" height="35" viewBox="0 0 35 35" fill="none" xmlns="http://www.w3.org/2000/svg">
<path d="M17.0003 2.9165C8.96491 2.9165 2.41699 9.46442 2.41699 17.4998C2.41699 25.5353 8.96491 32.0832 17.0003 32.0832C25.0357 32.0832 31.5837 25.5353 31.5837 17.4998C31.5837 9.46442 25.0357 2.9165 17.0003 2.9165ZM23.9712 14.1457L15.7024 22.4144C15.4982 22.6186 15.2212 22.7353 14.9295 22.7353C14.6378 22.7353 14.3607 22.6186 14.1566 22.4144L10.0295 18.2873C9.60658 17.8644 9.60658 17.1644 10.0295 16.7415C10.4524 16.3186 11.1524 16.3186 11.5753 16.7415L14.9295 20.0957L22.4253 12.5998C22.8482 12.1769 23.5482 12.1769 23.9712 12.5998C24.3941 13.0228 24.3941 13.7082 23.9712 14.1457Z" fill="#72D096"/>
</svg>
